<svg xmlns="http://www.w3.org/2000/svg" viewBox="0 0 250 250">
    <polygon class="st1"
        points="199.168 20.035 172.947 65.673 124.389 38.478 124.389 92.867 71.947 92.867 23.389 177.357 49.61 223.001 2.024 250.195 49.61 278.358 23.389 324.003 71.947 407.522 124.389 407.522 124.389 462.878 172.947 435.686 199.168 481.33 296.283 481.33 322.505 435.686 370.092 462.878 370.092 407.522 422.535 407.522 471.093 324.003 444.871 278.358 492.458 250.195 444.871 223.001 471.093 177.357 422.535 92.867 370.092 92.867 370.092 38.478 322.505 65.673 296.283 20.035"
        style="fill: rgb(199, 226, 11); stroke-width: 1;"></polygon>
    <path class="st2"
        d="M 423.505 250.195 C 423.505 347.31 344.842 425.974 247.725 425.974 C 150.61 425.974 71.947 347.31 71.947 250.195 C 71.947 153.082 150.61 74.411 247.725 74.411 C 344.842 74.411 423.505 153.082 423.505 250.195"
        style="fill: rgb(4, 0, 0); stroke-width: 1;"></path>
    <polygon class="st3"
        points="412.822 216.204 379.803 196.781 399.227 162.787 360.38 162.787 360.38 124.921 300.167 89.955 267.15 109.377 247.725 74.411 227.332 109.377 195.284 89.955 135.072 124.921 135.072 162.787 95.254 162.787 114.677 196.781 82.629 216.204 82.629 285.156 114.677 304.58 95.254 338.57 135.072 338.57 135.072 376.446 195.284 411.407 227.332 391.984 247.725 425.974 267.15 391.984 300.167 411.407 360.38 376.446 360.38 338.57 399.227 338.57 379.803 304.58 412.822 285.156"
        style="fill: rgb(15, 181, 206); stroke-width: 1;"></polygon>
    <path class="st4"
        d="M 309.88 359.935 C 249.669 394.897 172.947 374.503 137.985 314.291 C 103.024 254.079 123.418 177.357 183.63 142.397 C 243.841 107.431 320.563 127.834 355.524 188.04 C 391.457 248.252 370.092 324.973 309.88 359.935"
        style="fill: rgb(255, 255, 255); stroke-width: 1;"></path>
    <path class="st5"
        d="M 338.043 250.195 C 338.043 299.723 297.256 340.513 247.725 340.513 C 198.197 340.513 157.409 300.695 157.409 250.195 C 157.409 200.666 198.197 159.874 247.725 159.874 C 297.256 159.874 338.043 200.666 338.043 250.195 M 348.727 236.599 L 362.323 213.29 L 337.073 170.56 L 309.88 170.56 L 309.88 142.397 L 285.602 155.995 L 272.005 132.68 L 222.476 132.68 L 208.88 155.995 L 184.601 141.418 L 184.601 169.588 L 157.409 169.588 L 132.158 212.32 L 145.755 235.627 L 121.476 250.195 L 145.755 264.762 L 132.158 288.07 L 157.409 330.8 L 184.601 330.8 L 184.601 359.935 L 208.88 345.368 L 222.476 368.675 L 272.005 368.675 L 285.602 345.368 L 309.88 359.935 L 309.88 331.772 L 337.073 331.772 L 362.323 289.04 L 348.727 265.733 L 373.006 251.165 L 348.727 236.599 Z"
        style="fill: rgb(198, 0, 118); stroke-width: 1;"></path>
    <path class="st6"
        d="M 279.774 306.522 C 248.697 324.003 208.88 313.319 191.399 283.213 C 173.917 252.137 184.601 212.32 214.707 194.839 C 245.783 177.357 284.63 188.04 303.082 218.146 C 321.535 249.223 310.851 289.04 279.774 306.522 M 332.217 232.714 L 315.707 223.001 L 325.419 205.521 L 305.025 205.521 L 305.025 186.098 L 273.947 168.612 L 257.438 178.329 L 247.725 160.854 L 238.014 178.329 L 221.505 168.612 L 190.427 186.098 L 190.427 205.521 L 170.033 205.521 L 179.746 223.001 L 163.236 232.714 L 163.236 268.647 L 179.746 278.358 L 170.033 295.839 L 190.427 295.839 L 190.427 315.262 L 221.505 332.742 L 238.014 323.031 L 247.725 340.513 L 257.438 323.031 L 273.947 332.742 L 305.025 315.262 L 305.025 295.839 L 325.419 295.839 L 315.707 278.358 L 332.217 268.647 L 332.217 232.714 Z"
        style="fill: rgb(247, 188, 7); stroke-width: 1;"></path>
</svg>