<?xml version="1.0" encoding="UTF-8"?>
<svg id="Layer_1" xmlns="http://www.w3.org/2000/svg" version="1.1" viewBox="0 0 200 200">
  <!-- Generator: Adobe Illustrator 29.5.1, SVG Export Plug-In . SVG Version: 2.1.0 Build 141)  -->
  <defs>
    <style>
      .st0 {
        fill: #fff;
      }
    </style>
  </defs>
  <circle class="st0" cx="148.87" cy="52.28" r="9.13"/>
  <path class="st0" d="M148.87,21.85c-16.77,0-30.43,13.66-30.43,30.43,0,22.4,27.24,46.89,28.42,47.93,1.16,1,2.89,1,4.02,0,1.19-1.03,28.42-25.53,28.42-47.93,0-16.77-13.66-30.43-30.43-30.43ZM148.87,67.5c-8.4,0-15.22-6.82-15.22-15.22s6.82-15.22,15.22-15.22,15.22,6.82,15.22,15.22-6.82,15.22-15.22,15.22Z"/>
  <circle class="st0" cx="45.4" cy="131.4" r="3.04"/>
  <path class="st0" d="M45.4,110.1c-11.75,0-21.3,9.56-21.3,21.3,0,16.46,18.56,32.1,19.35,32.77,1.13.94,2.77.88,3.9,0,.79-.67,19.35-16.31,19.35-32.77,0-11.75-9.56-21.3-21.3-21.3ZM45.4,140.53c-5.02,0-9.13-4.11-9.13-9.13s4.11-9.13,9.13-9.13,9.13,4.11,9.13,9.13-4.11,9.13-9.13,9.13Z"/>
  <path class="st0" d="M170.23,88.19c-6.85,8.92-13.85,15.22-15.31,16.55-1.67,1.49-3.8,2.31-6.06,2.31s-4.38-.82-6.06-2.31c-1.46-1.34-8.46-7.64-15.31-16.55-3.8,2.62-6.03,5.99-6.03,9.74,0,8.67,11.78,15.22,27.39,15.22s27.39-6.54,27.39-15.22c0-3.74-2.22-7.12-6.03-9.74Z"/>
  <path class="st0" d="M62.26,157.27c-4.93,6.36-9.95,10.68-11.02,11.59-1.64,1.34-3.71,2.1-5.84,2.1s-4.2-.76-5.84-2.13c-1.07-.88-6.09-5.2-11.02-11.56-2.8,2.04-4.44,4.69-4.44,7.61,0,6.94,9.16,12.17,21.3,12.17s21.3-5.23,21.3-12.17c0-2.92-1.64-5.57-4.44-7.61Z"/>
  <path class="st0" d="M147.35,128.36h-54.78c-7.55,0-13.69-6.15-13.69-13.69s6.15-13.69,13.69-13.69h23.13c-.21-.97-.3-2.01-.3-3.04s.09-2.04.3-3.04h-23.13c-10.89,0-19.78,8.89-19.78,19.78s8.89,19.78,19.78,19.78h54.78c7.55,0,13.69,6.15,13.69,13.69s-6.15,13.69-13.69,13.69h-74.92c.24,1,.37,2.01.37,3.04s-.12,2.07-.33,3.04h74.89c10.89,0,19.78-8.89,19.78-19.78s-8.89-19.78-19.78-19.78Z"/>
</svg>