<?xml version="1.0" encoding="UTF-8"?>
<svg id="Layer_1" xmlns="http://www.w3.org/2000/svg" version="1.1" viewBox="0 0 200 200">
  <!-- Generator: Adobe Illustrator 29.5.1, SVG Export Plug-In . SVG Version: 2.1.0 Build 141)  -->
  <defs>
    <style>
      .st0 {
        fill: #fff;
      }
    </style>
  </defs>
  <path class="st0" d="M131.93,68.1c0-1.66-1.34-3-3-3H53.09c-1.66,0-3,1.34-3,3v6.39h81.83v-6.39Z"/>
  <path class="st0" d="M146.83,116.49l-11.33,11.33-4.32-4.32c-1.44-1.44-3.77-1.44-5.21,0s-1.44,3.77,0,5.2l6.92,6.92c.72.72,1.66,1.08,2.6,1.08s1.88-.36,2.6-1.08l13.93-13.93c1.44-1.44,1.44-3.77,0-5.2s-3.77-1.44-5.2,0Z"/>
  <path class="st0" d="M100.02,8.74C49.25,8.74,7.92,50.04,7.92,100.81s41.33,92.1,92.1,92.1,92.06-41.33,92.06-92.1S150.79,8.74,100.02,8.74ZM105.28,125.62v.64h-52.19c-5.93,0-10.76-4.83-10.76-10.76v-47.39c0-5.93,4.83-10.76,10.76-10.76h75.83c5.93,0,10.76,4.83,10.76,10.76v23.82h-.67c-2.43,0-4.8.25-7.09.74v-5.82H50.09v28.65c0,1.66,1.34,3.04,3,3.04h52.93c-.49,2.29-.74,4.66-.74,7.09ZM88.17,104.18v5.98c0,.61-.5,1.11-1.11,1.11h-10.27c-.61,0-1.11-.49-1.11-1.11v-5.98c0-.61.5-1.11,1.11-1.11h10.27c.61,0,1.11.5,1.11,1.11ZM70,104.18v5.98c0,.61-.5,1.11-1.11,1.11h-10.27c-.61,0-1.11-.49-1.11-1.11v-5.98c0-.61.5-1.11,1.11-1.11h10.27c.61,0,1.11.5,1.11,1.11ZM106.34,110.17c0,.61-.5,1.11-1.11,1.11h-10.27c-.61,0-1.11-.49-1.11-1.11v-5.98c0-.61.5-1.11,1.11-1.11h10.27c.61,0,1.11.5,1.11,1.11v5.98ZM139.01,152.28c-14.72,0-26.65-11.93-26.65-26.65s11.93-26.65,26.65-26.65,26.65,11.93,26.65,26.65-11.93,26.65-26.65,26.65Z"/>
</svg>