<?xml version="1.0" encoding="UTF-8"?>
<svg id="Layer_1" xmlns="http://www.w3.org/2000/svg" version="1.1" viewBox="0 0 200 200">
  <!-- Generator: Adobe Illustrator 29.5.1, SVG Export Plug-In . SVG Version: 2.1.0 Build 141)  -->
  <defs>
    <style>
      .st0 {
        fill: #fff;
      }
    </style>
  </defs>
  <path class="st0" d="M151.57,12.32h-84.96c-10.54,0-19.12,8.52-19.23,19.04-10.11.55-18.18,8.93-18.18,19.18v117.82c0,10.61,8.63,19.24,19.24,19.24h84.96c10.54,0,19.12-8.52,19.23-19.04,10.11-.55,18.18-8.93,18.18-19.18V31.56c0-10.61-8.63-19.24-19.24-19.24ZM146.22,168.36c0,7.07-5.75,12.82-12.82,12.82H48.43c-7.07,0-12.82-5.75-12.82-12.82V50.54c0-7.07,5.75-12.82,12.82-12.82h68.53v29.66c0,1.77,1.44,3.21,3.21,3.21h26.05v97.79ZM123.38,64.16v-21.23l18.9,21.23h-18.9ZM164.39,149.38c0,6.71-5.19,12.16-11.76,12.72v-94.73c0-.41-.09-.81-.24-1.19-.06-.14-.16-.26-.24-.39-.11-.19-.19-.39-.33-.55l-29.26-32.86s-.05-.03-.07-.05c-.22-.23-.49-.4-.76-.56-.1-.06-.17-.14-.28-.19-.39-.17-.82-.27-1.28-.27H53.8c.14-6.95,5.81-12.57,12.8-12.57h84.96c7.07,0,12.82,5.75,12.82,12.82v117.82Z"/>
  <path class="st0" d="M80.5,64.16h-28.32c-1.77,0-3.21,1.44-3.21,3.21s1.44,3.21,3.21,3.21h28.32c1.77,0,3.21-1.44,3.21-3.21s-1.44-3.21-3.21-3.21Z"/>
  <path class="st0" d="M80.5,148.59h-28.32c-1.77,0-3.21,1.44-3.21,3.21s1.44,3.21,3.21,3.21h28.32c1.77,0,3.21-1.44,3.21-3.21s-1.44-3.21-3.21-3.21Z"/>
  <path class="st0" d="M128.05,85.54H52.18c-1.77,0-3.21,1.44-3.21,3.21s1.44,3.21,3.21,3.21h75.88c1.77,0,3.21-1.44,3.21-3.21s-1.44-3.21-3.21-3.21Z"/>
  <path class="st0" d="M128.05,101.39H52.18c-1.77,0-3.21,1.44-3.21,3.21s1.44,3.21,3.21,3.21h75.88c1.77,0,3.21-1.44,3.21-3.21s-1.44-3.21-3.21-3.21Z"/>
  <path class="st0" d="M128.05,117.25H52.18c-1.77,0-3.21,1.44-3.21,3.21s1.44,3.21,3.21,3.21h75.88c1.77,0,3.21-1.44,3.21-3.21s-1.44-3.21-3.21-3.21Z"/>
  <path class="st0" d="M128.05,133.1H52.18c-1.77,0-3.21,1.44-3.21,3.21s1.44,3.21,3.21,3.21h75.88c1.77,0,3.21-1.44,3.21-3.21s-1.44-3.21-3.21-3.21Z"/>
</svg>