<?xml version="1.0" encoding="UTF-8"?>
<svg id="Layer_1" xmlns="http://www.w3.org/2000/svg" version="1.1" viewBox="0 0 200 200">
  <!-- Generator: Adobe Illustrator 29.5.1, SVG Export Plug-In . SVG Version: 2.1.0 Build 141)  -->
  <defs>
    <style>
      .st0 {
        stroke: #fff;
        stroke-miterlimit: 10;
      }

      .st0, .st1 {
        fill: #fff;
      }
    </style>
  </defs>
  <polygon class="st1" points="28.95 89.64 54.39 114.2 54.39 82.27 28.95 89.64"/>
  <g>
    <path class="st1" d="M75.7,70.24c0-5.87-2.76-8.41-7.56-8.41h-1.85v17h1.85c4.8,0,7.56-2.73,7.56-8.6Z"/>
    <path class="st1" d="M47.98,61.79h-2.93v8.32h3.08c3.56,0,5.25-1.42,5.25-4.35s-1.85-3.97-5.4-3.97Z"/>
    <path class="st1" d="M171.05,50.87s0-.04,0-.05c0-.05,0-.1,0-.15,0-.04-.01-.09-.02-.13,0-.05-.01-.09-.02-.14,0-.05-.02-.09-.03-.13-.01-.04-.02-.09-.03-.13-.01-.04-.03-.08-.04-.13-.02-.04-.03-.09-.05-.13-.02-.04-.03-.07-.05-.11-.02-.05-.04-.09-.07-.14-.02-.03-.03-.06-.05-.09-.03-.05-.06-.1-.09-.14-.02-.03-.04-.05-.06-.08-.03-.05-.07-.09-.1-.14-.02-.03-.04-.05-.07-.08-.04-.04-.07-.08-.11-.12-.03-.03-.05-.05-.08-.08-.03-.03-.06-.06-.09-.08l-39.04-33.69s-.01-.01-.02-.02c-.05-.04-.1-.08-.15-.11-.02-.02-.05-.04-.07-.06-.05-.04-.1-.07-.16-.1-.03-.02-.05-.03-.08-.05-.05-.03-.11-.06-.16-.08-.03-.01-.05-.03-.08-.04-.06-.02-.11-.04-.17-.06-.03-.01-.06-.02-.09-.03-.05-.02-.11-.03-.16-.04-.03,0-.07-.02-.1-.03-.05-.01-.1-.02-.15-.03-.04,0-.08-.01-.12-.02-.05,0-.09,0-.14,0-.05,0-.09,0-.14,0-.01,0-.02,0-.03,0,0,0,0,0,0,0h-63.69c-7.68,0-13.92,6.25-13.92,13.92v22.68h-22.66v38.61h22.66v68c0,7.68,6.25,13.92,13.92,13.92h32.14l-3.99-5.57h-28.15c-4.61,0-8.35-3.75-8.35-8.35v-68h53.97v-38.61h-53.97v-22.68c0-4.61,3.75-8.35,8.35-8.35h60.91v30.91c0,1.54,1.25,2.78,2.78,2.78h36.26v103.95c0,4.61-3.75,8.35-8.35,8.35h-28.52l-3.99,5.57h32.51c7.68,0,13.92-6.25,13.92-13.92V50.91s0-.02,0-.04ZM84.86,58.4h14.42v3.56h-10.19v6.77h8.67v3.56h-8.67v9.97h-4.23v-23.86ZM62.05,58.4h6.36c7.31,0,11.63,3.94,11.63,11.84s-4.32,12.03-11.41,12.03h-6.58v-23.86ZM57.56,65.76c0,5.32-3.94,7.74-9.08,7.74h-3.43v8.77h-4.23v-23.86h7.52c5.3,0,9.22,1.84,9.22,7.36ZM132.01,48.12v-24.83l28.77,24.83h-28.77Z"/>
  </g>
  <rect class="st0" x="75.7" y="103.17" width="73.05" height="4.81"/>
  <rect class="st0" x="75.7" y="118.51" width="73.05" height="4.81"/>
  <rect class="st0" x="75.7" y="133.85" width="73.05" height="4.81"/>
  <polygon class="st0" points="125.49 165.57 125.18 165.99 121.19 171.56 111.14 185.57 101.1 171.56 97.1 165.99 96.8 165.57 103.89 165.57 103.89 145.07 118.4 145.07 118.4 165.57 125.49 165.57"/>
</svg>