<?xml version="1.0" encoding="UTF-8"?>
<svg id="Layer_1" xmlns="http://www.w3.org/2000/svg" version="1.1" viewBox="0 0 200 200">
  <!-- Generator: Adobe Illustrator 29.5.1, SVG Export Plug-In . SVG Version: 2.1.0 Build 141)  -->
  <defs>
    <style>
      .st0, .st1, .st2 {
        fill: #fff;
      }

      .st1 {
        opacity: .5;
      }

      .st2 {
        opacity: .8;
      }
    </style>
  </defs>
  <path class="st0" d="M31.7,76.96h136.59c6.33,0,12.09,2.6,16.24,6.75,4.2,4.2,6.8,9.96,6.8,16.29s-2.6,12.09-6.8,16.29c-4.16,4.16-9.92,6.75-16.24,6.75H31.7c-6.33,0-12.09-2.6-16.24-6.75-4.2-4.2-6.8-9.96-6.8-16.29s2.6-12.09,6.8-16.29c4.15-4.15,9.91-6.75,16.24-6.75h0ZM168.3,83.62H31.7c-4.49,0-8.59,1.84-11.57,4.82-2.93,2.97-4.81,7.08-4.81,11.57s1.89,8.59,4.81,11.57c2.97,2.97,7.08,4.81,11.57,4.81h136.59c4.49,0,8.59-1.84,11.57-4.81,2.93-2.97,4.77-7.08,4.77-11.57s-1.84-8.59-4.77-11.57c-2.98-2.97-7.08-4.82-11.57-4.82h0Z"/>
  <path class="st0" d="M110.13,89.24h-20.25c-1.84,0-3.35,1.46-3.35,3.31v14.92c0,1.84,1.51,3.35,3.35,3.35h20.25c1.84,0,3.35-1.51,3.35-3.35v-14.92c0-1.84-1.51-3.31-3.35-3.31Z"/>
  <path class="st2" d="M78.35,89.24h-20.3c-1.84,0-3.35,1.46-3.35,3.31v14.92c0,1.84,1.51,3.35,3.35,3.35h20.3c1.84,0,3.31-1.51,3.31-3.35v-14.92c0-1.84-1.46-3.31-3.31-3.31Z"/>
  <path class="st1" d="M46.53,89.24h-14.82c-2.97,0-5.67,1.18-7.6,3.16-1.94,1.94-3.16,4.63-3.16,7.6s1.18,5.67,3.16,7.6c1.98,1.98,4.67,3.21,7.6,3.21h14.82c1.84,0,3.31-1.51,3.31-3.35v-14.92c0-1.84-1.46-3.31-3.31-3.31Z"/>
</svg>