<?xml version="1.0" encoding="UTF-8"?>
<svg id="Layer_1" xmlns="http://www.w3.org/2000/svg" version="1.1" viewBox="0 0 200 200">
  <!-- Generator: Adobe Illustrator 29.5.1, SVG Export Plug-In . SVG Version: 2.1.0 Build 141)  -->
  <defs>
    <style>
      .st0 {
        fill: #fff;
      }
    </style>
  </defs>
  <path class="st0" d="M157.44,50.22l-.06.07-50.1,50.09,7.71,7.71,7.71,7.71,30.37-30.38.11-.1,25.41-25.41-15.42-15.42-5.72,5.72ZM182.87,55.62l7.24-7.23-15.42-15.42-7.24,7.24,15.42,15.41ZM100.07,123.02l16.79-4.5-12.29-12.29-4.5,16.79ZM110.02,126.62l-13.43,3.6c-.49.15-1.05.16-1.58.01-1.62-.43-2.58-2.09-2.15-3.71l7.17-26.77v-.02h.01v-.06s.01-.01.01-.01h0s.01-.04.01-.04v-.02h0v-.05s.02-.02.02-.02h0s.01-.04.01-.04v-.02h.01v-.05s.01-.02.01-.02h.01v-.05s.02-.02.02-.02h0v-.06s.02-.01.02-.01h0s.01-.04.01-.04v-.02s.01-.01.01-.01h.01s.01-.04.01-.04v-.02s.01-.01.01-.01h0s.01-.04.01-.04v-.02h.02v-.05s.02-.02.02-.02h0l.04-.05h0s.01-.02.01-.02v-.02s.02-.02.02-.02h0v-.02s.02-.02.02-.02h.01s.01-.02.01-.02h.01s.01-.04.01-.04v-.02h.01v-.02s.04-.02.04-.02h.01v-.05s.04-.02.04-.02h.01s.01-.04.01-.04l.02-.02h0v-.02s.04-.02.04-.02h.01s.04-.06.04-.06h.01s.01-.02.01-.02v-.02s.04-.01.04-.01h0s.01-.02.01-.02l.02-.02h.01s.01-.02.01-.02h.01s.02-.04.02-.04h.01s51.39-51.4,51.39-51.4v-5.62c0-.56-.23-1.06-.6-1.42l-.1-.11c-.35-.3-.81-.48-1.33-.48h-9.39c-.12.01-.25.02-.39.02-.18.01-.36,0-.53-.02H41.35c-.56,0-1.06.22-1.42.58h0c-.36.37-.59.88-.59,1.44v107.17h31.96c1.68,0,3.03,1.35,3.03,3.03v31.96h75.89c.56,0,1.06-.23,1.42-.59.37-.37.6-.87.6-1.42v-86.53l-27.4,27.4c-.42.42-.95.7-1.51.82l-13.31,3.56ZM158.3,88.78v92.59c0,2.22-.91,4.25-2.37,5.71-1.47,1.46-3.49,2.38-5.72,2.38h-79.07s-.01-.01-.01-.01h-.13l-.14-.02h-.04c-.17-.04-.34-.07-.49-.12h-.02s-.01-.01-.01-.01h-.04s-.02-.02-.02-.02h-.01l-.13-.06h-.02s-.01-.01-.01-.01h-.02s-.01-.02-.01-.02h-.02s-.04-.02-.04-.02h-.04v-.02h-.02s-.01-.01-.01-.01h-.02s-.04-.04-.04-.04h-.04v-.02h-.02s-.01-.01-.01-.01h-.02v-.02h-.02s-.01-.01-.01-.01l-.02-.02h-.04v-.02h-.02s-.01-.01-.01-.01l-.02-.02h0l-.02-.02h-.04v-.02h-.02s-.01-.02-.01-.02h-.02v-.02l-.04-.02h-.02v-.02h-.02s-.01-.02-.01-.02h-.01s-.01-.02-.01-.02h-.02s-.01-.02-.01-.02h-.01s-.01-.02-.01-.02h-.01s-.02-.02-.02-.02h-.01s-.01-.02-.01-.02h-.01s-.01-.04-.01-.04l-.04-.02h0s-.02-.04-.02-.04l-14.75-14.74h-28.18c-2.21,0-4.24-.91-5.7-2.38h-.01c-1.46-1.46-2.38-3.48-2.38-5.71V25.56c0-2.22.92-4.25,2.38-5.71,1.46-1.46,3.49-2.38,5.71-2.38h108.88c2.22,0,4.21.91,5.66,2.37l.19.21c1.34,1.42,2.16,3.36,2.21,5.44l.19,7.65h6.89c2.12,0,4.06.83,5.5,2.18l.22.19c1.36,1.36,2.24,3.22,2.35,5.27l2.73-2.73,11.54-11.53c1.18-1.18,3.1-1.18,4.28,0l19.71,19.71c1.18,1.18,1.18,3.1,0,4.28l-11.53,11.53-26.72,26.72ZM54.41,65.8c-1.68,0-3.04-1.36-3.04-3.04s1.36-3.03,3.04-3.03h68.11c1.68,0,3.04,1.36,3.04,3.03s-1.36,3.04-3.04,3.04H54.41ZM54.41,87.31c-1.68,0-3.04-1.36-3.04-3.03s1.36-3.04,3.04-3.04h47.66c1.68,0,3.03,1.36,3.03,3.04s-1.35,3.03-3.03,3.03h-47.66ZM54.41,108.81c-1.68,0-3.04-1.35-3.04-3.03s1.36-3.03,3.04-3.03h33.99c1.68,0,3.03,1.35,3.03,3.03s-1.35,3.03-3.03,3.03h-33.99ZM54.41,130.33c-1.68,0-3.04-1.36-3.04-3.03s1.36-3.04,3.04-3.04h28.18c1.68,0,3.03,1.36,3.03,3.04s-1.35,3.03-3.03,3.03h-28.18ZM43.62,154.45l14.13,14.13.05.05,10.46,10.46v-24.65h-24.65ZM34.19,153.59l-.04-.04-.05-.04h-.01s-.05-.07-.05-.07h-.01s-.02-.04-.02-.04v-.02s-.02-.01-.02-.01l-.08-.11h-.01l-.04-.06h-.01v-.04s-.04-.02-.04-.02h0l-.02-.04v-.02h-.02s-.04-.06-.04-.06h0s-.04-.07-.04-.07h0l-.04-.06h0l-.04-.06h0s-.05-.11-.05-.11v-.02s-.02-.01-.02-.01v-.04s-.02-.02-.02-.02l-.06-.13h0c-.12-.35-.19-.7-.19-1.07V41.23c0-2.22.92-4.25,2.38-5.71h0c1.47-1.46,3.5-2.38,5.71-2.38h95.93l-.18-7.51c-.01-.54-.22-1.04-.54-1.41l-.11-.1c-.35-.36-.84-.58-1.38-.58H26.19c-.54,0-1.05.23-1.42.59-.36.37-.59.87-.59,1.42v140.14c0,.56.23,1.06.59,1.42h0c.36.37.87.59,1.42.59h22.12l-14.12-14.12Z"/>
</svg>