<?xml version="1.0" encoding="UTF-8"?>
<svg id="Layer_1" xmlns="http://www.w3.org/2000/svg" version="1.1" viewBox="0 0 200 200">
  <!-- Generator: Adobe Illustrator 29.5.1, SVG Export Plug-In . SVG Version: 2.1.0 Build 141)  -->
  <defs>
    <style>
      .st0 {
        fill: #fff;
      }
    </style>
  </defs>
  <path class="st0" d="M83.45,64.45c-29.27,0-53.08,18.99-53.08,42.35,0,13.03,7.25,25.01,19.93,33.09,0,4.51-1.07,8.98-3.12,13-.44.86-.38,1.91.16,2.72.5.76,1.35,1.21,2.24,1.21.06,0,.13-.01.2-.01,7.8-.58,15.56-3.55,22.5-8.6,3.66.62,7.4.94,11.16.94,29.28,0,53.08-19,53.08-42.35s-23.81-42.35-53.08-42.35ZM60.78,112.69c-3.28,0-5.93-2.66-5.93-5.93s2.66-5.93,5.93-5.93,5.93,2.66,5.93,5.93-2.66,5.93-5.93,5.93ZM83.45,112.69c-3.28,0-5.93-2.66-5.93-5.93s2.66-5.93,5.93-5.93,5.93,2.66,5.93,5.93-2.66,5.93-5.93,5.93ZM106.13,112.69c-3.28,0-5.93-2.66-5.93-5.93s2.66-5.93,5.93-5.93,5.93,2.66,5.93,5.93-2.66,5.93-5.93,5.93Z"/>
  <path class="st0" d="M169.63,85.98c0-18.98-19.3-34.43-43.02-34.43-11.1,0-21.25,3.39-28.89,8.94,25.37,5.22,44.2,24,44.2,46.31,0,5.29-1.06,10.37-3.01,15.13,4.64,2.65,9.6,4.23,14.59,4.6.08,0,.14.01.2.01.9,0,1.75-.45,2.24-1.21.54-.81.6-1.85.16-2.72-1.55-3.05-2.4-6.44-2.44-9.86,10.15-6.56,15.95-16.24,15.95-26.76Z"/>
</svg>