<?xml version="1.0" encoding="UTF-8"?>
<svg id="Layer_1" xmlns="http://www.w3.org/2000/svg" version="1.1" viewBox="0 0 200 200">
  <!-- Generator: Adobe Illustrator 29.5.1, SVG Export Plug-In . SVG Version: 2.1.0 Build 141)  -->
  <defs>
    <style>
      .st0 {
        fill: #fff;
      }
    </style>
  </defs>
  <path class="st0" d="M186.79,63.33c-4.74-11.22-11.54-21.29-20.18-29.94-8.65-8.65-18.72-15.44-29.94-20.18-11.62-4.91-23.95-7.4-36.67-7.4s-25.05,2.49-36.67,7.4c-11.22,4.74-21.29,11.54-29.94,20.18-8.65,8.65-15.44,18.72-20.18,29.94-4.91,11.62-7.4,23.95-7.4,36.67s2.49,25.05,7.4,36.67c4.74,11.22,11.54,21.29,20.18,29.94,8.65,8.65,18.72,15.44,29.94,20.18,11.62,4.91,23.95,7.4,36.67,7.4s25.05-2.49,36.67-7.4c11.22-4.74,21.29-11.54,29.94-20.18s15.44-18.72,20.18-29.94c4.91-11.62,7.4-23.95,7.4-36.67s-2.49-25.05-7.4-36.67ZM132.31,176.48c-10.23,4.33-21.1,6.52-32.31,6.52s-22.08-2.19-32.31-6.52c-7.77-3.28-14.91-7.68-21.31-13.12,2-12.09,8.07-23.18,17.27-31.46,9.99-8.99,22.9-13.94,36.36-13.94s26.37,4.95,36.36,13.94c9.2,8.28,15.26,19.37,17.27,31.46-6.4,5.43-13.55,9.83-21.32,13.12ZM79.04,98.08c-5.6-5.6-8.68-13.04-8.68-20.96s3.08-15.36,8.68-20.96c5.6-5.6,13.04-8.68,20.96-8.68s15.36,3.08,20.96,8.68c5.6,5.6,8.68,13.04,8.68,20.96s-3.08,15.36-8.68,20.96c-5.6,5.6-13.04,8.68-20.96,8.68s-15.36-3.08-20.96-8.68ZM176.48,132.31c-3.36,7.95-7.89,15.25-13.51,21.77-3.37-11.66-9.96-22.23-19.13-30.49-6.17-5.55-13.26-9.83-20.9-12.68,2.11-1.44,4.1-3.08,5.93-4.91,3.75-3.75,6.69-8.12,8.75-12.98,2.13-5.04,3.21-10.39,3.21-15.9s-1.08-10.86-3.21-15.9c-2.06-4.86-5-9.23-8.75-12.98-3.75-3.75-8.12-6.69-12.98-8.75-5.04-2.13-10.39-3.21-15.9-3.21s-10.86,1.08-15.9,3.21c-4.86,2.06-9.23,5-12.98,8.75-3.75,3.75-6.69,8.12-8.75,12.98-2.13,5.04-3.21,10.39-3.21,15.9s1.08,10.86,3.21,15.9c2.06,4.86,5,9.23,8.75,12.98,1.83,1.83,3.81,3.47,5.93,4.91-7.63,2.85-14.73,7.13-20.9,12.68-9.17,8.26-15.76,18.83-19.13,30.49-5.61-6.52-10.15-13.82-13.51-21.77-4.33-10.23-6.52-21.1-6.52-32.31s2.19-22.08,6.52-32.31c4.18-9.88,10.17-18.76,17.79-26.38,7.62-7.62,16.5-13.61,26.38-17.79,10.23-4.33,21.1-6.52,32.31-6.52s22.08,2.19,32.31,6.52c9.88,4.18,18.76,10.17,26.38,17.79,7.62,7.62,13.61,16.5,17.79,26.38,4.33,10.23,6.52,21.1,6.52,32.31s-2.19,22.08-6.52,32.31Z"/>
</svg>